<svg xmlns="http://www.w3.org/2000/svg" viewBox="0 0 800 800" width="800" height="800">
	<style>
		tspan { white-space:pre }
		.shp0 { fill: #103b9b } 
		.shp1 { fill: #ffffff } 
		.shp2 { fill: #ed1f34 } 
		.shp3 { fill: #000000 } 
		.shp4 { display: none;fill: #ed1f34 } 
		.shp5 { fill: #dd0000 } 
		.shp6 { fill: #ffce00 } 
	</style>
	<g id="Layer">
		<path id="Layer" class="shp0" d="M24.81 331.32L24.81 232.41L173.18 331.32L24.81 331.32Z" />
		<path id="Layer" class="shp0" d="M25.81 234.28L25.81 330.32L169.87 330.32L25.81 234.28Z" />
		<path id="Layer" class="shp0" d="M154.57 153.84L331.32 153.84L331.32 271.68L154.57 153.84Z" />
		<path id="Layer" class="shp0" d="M330.32 154.84L157.87 154.84L330.32 269.81L330.32 154.84Z" />
		<path id="Layer" class="shp0" d="M24.81 468.68L173.18 468.68L24.81 567.59L24.81 468.68Z" />
		<path id="Layer" class="shp0" d="M25.81 469.68L25.81 565.72L169.87 469.68L25.81 469.68Z" />
		<path id="Layer" class="shp0" d="M468.68 153.84L645.43 153.84L468.68 271.68L468.68 153.84Z" />
		<path id="Layer" class="shp0" d="M642.13 154.84L469.68 154.84L469.68 269.81L642.13 154.84Z" />
		<path id="Layer" class="shp0" d="M626.83 331.32L775.19 232.41L775.19 331.32L626.83 331.32Z" />
		<path id="Layer" class="shp0" d="M774.19 330.32L774.19 234.28L630.13 330.32L774.19 330.32Z" />
		<path id="Layer" class="shp0" d="M154.57 646.16L331.32 528.32L331.32 646.16L154.57 646.16Z" />
		<path id="Layer" class="shp0" d="M157.87 645.16L330.32 645.16L330.32 530.19L157.87 645.16Z" />
		<path id="Layer" class="shp0" d="M626.83 468.68L775.19 468.68L775.19 567.59L626.83 468.68Z" />
		<path id="Layer" class="shp0" d="M774.19 565.72L774.19 469.68L630.13 469.68L774.19 565.72Z" />
		<path id="Layer" class="shp0" d="M468.68 646.16L468.68 528.32L645.43 646.16L468.68 646.16Z" />
		<path id="Layer" class="shp0" d="M469.68 645.16L642.13 645.16L469.68 530.19L469.68 645.16Z" />
		<path id="Layer" class="shp1" d="M642.13 154.84L469.68 269.81L469.68 154.84L450.32 154.84L450.32 349.68L774.19 349.68L774.19 330.32L630.13 330.32L774.19 234.28L774.19 166.04L527.78 330.32L481.25 330.32L469.68 330.32L469.68 313.24L469.68 282.23L660.74 154.84L642.13 154.84Z" />
		<path id="Layer" class="shp1" d="M157.87 645.16L330.32 530.19L330.32 645.16L349.68 645.16L349.68 450.32L25.81 450.32L25.81 469.68L169.87 469.68L25.81 565.72L25.81 633.95L272.22 469.68L318.75 469.68L330.32 469.68L330.32 486.77L330.32 517.79L139.26 645.16L157.87 645.16Z" />
		<path id="Layer" class="shp2" d="M52.22 646.16L318.44 468.68L331.32 468.68L331.32 487.31L93.04 646.16L52.22 646.16Z" />
		<path id="Layer" class="shp2" d="M318.75 469.68L55.52 645.16L92.74 645.16L330.32 486.77L330.32 469.68L318.75 469.68Z" />
		<path id="Layer" class="shp2" d="M234.13 331.32L24.81 191.44L24.81 164.18L275.52 331.32L234.13 331.32Z" />
		<path id="Layer" class="shp2" d="M25.81 166.04L25.81 190.91L234.43 330.32L272.22 330.32L25.81 166.04Z" />
		<path id="Layer" class="shp2" d="M524.48 468.68L564.03 468.68L775.19 609.79L775.19 635.82L524.48 468.68Z" />
		<path id="Layer" class="shp2" d="M774.19 633.95L774.19 610.32L563.72 469.68L527.78 469.68L774.19 633.95Z" />
		<path id="Layer" class="shp2" d="M468.68 331.32L468.68 312.71L706.96 153.84L747.78 153.84L481.56 331.32L468.68 331.32Z" />
		<path id="Layer" class="shp2" d="M481.25 330.32L744.48 154.84L707.26 154.84L469.68 313.24L469.68 330.32L481.25 330.32Z" />
		<path id="Layer" fill-rule="evenodd" class="shp3" d="M800 658.02L800 658.06C800 658.14 799.99 658.21 799.98 658.29C799.98 658.64 799.97 658.98 799.93 659.33C799.92 659.48 799.89 659.62 799.87 659.77C799.83 660.04 799.8 660.31 799.74 660.58C799.71 660.77 799.66 660.96 799.61 661.14C799.55 661.36 799.5 661.58 799.44 661.8C799.37 662.03 799.29 662.25 799.21 662.47C799.14 662.64 799.09 662.81 799.02 662.98C798.91 663.25 798.78 663.51 798.65 663.77C798.59 663.89 798.54 664.01 798.48 664.13C798.3 664.46 798.11 664.78 797.91 665.09C797.88 665.13 797.86 665.18 797.83 665.22C797.83 665.23 797.83 665.23 797.82 665.23C797.55 665.65 797.24 666.04 796.92 666.42C796.82 666.54 796.71 666.65 796.61 666.76C796.38 667.01 796.15 667.24 795.9 667.47C795.77 667.6 795.64 667.72 795.5 667.84C795.24 668.06 794.97 668.27 794.7 668.47C794.59 668.55 794.48 668.64 794.37 668.72C793.97 668.99 793.57 669.23 793.15 669.45C793.05 669.51 792.96 669.55 792.86 669.6C792.52 669.76 792.17 669.92 791.82 670.06C791.69 670.11 791.56 670.16 791.43 670.21C791.09 670.32 790.75 670.43 790.41 670.52C790.27 670.56 790.14 670.59 790 670.63C789.65 670.71 789.29 670.77 788.92 670.82C788.8 670.84 788.67 670.87 788.55 670.88C788.09 670.93 787.62 670.96 787.15 670.96C787.13 670.96 787.11 670.97 787.08 670.97C787.08 670.97 787.07 670.97 787.07 670.97C787.05 670.97 12.95 670.97 12.93 670.97C12.93 670.97 12.92 670.97 12.91 670.97C12.89 670.97 12.87 670.96 12.85 670.96C12.37 670.96 11.91 670.93 11.45 670.88C11.32 670.86 11.2 670.84 11.07 670.82C10.71 670.77 10.35 670.71 9.99 670.63C9.85 670.59 9.72 670.56 9.58 670.52C9.24 670.43 8.9 670.33 8.57 670.21C8.44 670.16 8.31 670.11 8.17 670.06C7.82 669.92 7.48 669.77 7.15 669.6C7.04 669.55 6.94 669.51 6.84 669.46C6.42 669.23 6.02 668.99 5.63 668.73C5.52 668.65 5.41 668.55 5.29 668.47C5.02 668.27 4.75 668.06 4.5 667.84C4.36 667.72 4.22 667.6 4.09 667.47C3.85 667.25 3.62 667.01 3.39 666.77C3.29 666.65 3.18 666.54 3.08 666.42C2.76 666.04 2.45 665.65 2.17 665.23C2.17 665.23 2.17 665.23 2.17 665.22C2.14 665.18 2.12 665.13 2.09 665.09C1.88 664.78 1.69 664.46 1.51 664.13C1.45 664.01 1.4 663.89 1.34 663.77C1.22 663.51 1.09 663.25 0.98 662.99C0.91 662.82 0.85 662.64 0.79 662.47C0.71 662.24 0.62 662.03 0.55 661.8C0.49 661.58 0.44 661.36 0.39 661.14C0.34 660.96 0.29 660.77 0.25 660.58C0.2 660.31 0.16 660.04 0.13 659.77C0.11 659.62 0.08 659.48 0.07 659.33C0.03 658.98 0.02 658.64 0.01 658.29C0.01 658.21 0 658.14 0 658.06C0 658.05 0 197.89 0 197.88C0 197.86 0 142.04 0 142.02C0 142.01 0 141.95 0 141.94C0 141.86 0.01 141.79 0.01 141.71C0.01 141.37 0.02 141.02 0.06 140.67C0.07 140.52 0.1 140.38 0.12 140.24C0.15 139.96 0.19 139.69 0.24 139.42C0.28 139.23 0.33 139.05 0.38 138.86C0.43 138.64 0.48 138.42 0.55 138.2C0.62 137.97 0.7 137.76 0.78 137.54C0.84 137.37 0.9 137.19 0.97 137.01C1.08 136.75 1.21 136.49 1.33 136.24C1.39 136.12 1.44 135.99 1.51 135.87C1.68 135.55 1.87 135.24 2.07 134.93C2.1 134.88 2.13 134.83 2.16 134.78C2.16 134.77 2.17 134.77 2.17 134.76C2.41 134.41 2.67 134.06 2.94 133.72C3.04 133.61 3.15 133.5 3.25 133.39C3.42 133.19 3.6 132.99 3.78 132.8C3.98 132.6 4.19 132.42 4.4 132.24C4.51 132.15 4.61 132.05 4.71 131.96C4.92 131.8 5.13 131.65 5.34 131.5C5.47 131.4 5.59 131.3 5.73 131.21C5.91 131.09 6.1 130.98 6.28 130.87C6.46 130.77 6.64 130.65 6.82 130.56C6.96 130.48 7.12 130.41 7.26 130.34C7.49 130.23 7.73 130.11 7.97 130.01C8.07 129.97 8.18 129.94 8.28 129.9C8.57 129.79 8.86 129.68 9.15 129.59C9.23 129.57 9.3 129.55 9.37 129.53C9.7 129.44 10.03 129.35 10.37 129.28C10.46 129.26 10.55 129.26 10.64 129.24C10.98 129.18 11.32 129.13 11.68 129.09C12.08 129.05 12.48 129.03 12.88 129.03C12.89 129.03 703.39 129.03 703.4 129.03C703.41 129.03 787.08 129.03 787.1 129.03C787.1 129.03 787.11 129.03 787.12 129.03C787.52 129.03 787.93 129.06 788.32 129.09C788.63 129.12 788.93 129.17 789.22 129.22C789.36 129.24 789.5 129.26 789.64 129.28C789.95 129.34 790.25 129.43 790.55 129.51C790.65 129.54 790.75 129.56 790.85 129.59C791.12 129.67 791.39 129.77 791.66 129.87C791.78 129.92 791.91 129.96 792.04 130.01C792.26 130.11 792.47 130.21 792.68 130.32C792.85 130.4 793.02 130.47 793.19 130.56C793.35 130.65 793.5 130.75 793.66 130.84C793.87 130.96 794.08 131.08 794.28 131.21C794.39 131.29 794.5 131.38 794.61 131.46C794.84 131.62 795.07 131.79 795.29 131.97C795.38 132.04 795.45 132.12 795.54 132.19C795.77 132.39 796 132.59 796.22 132.81C796.37 132.96 796.51 133.13 796.66 133.29C796.79 133.44 796.93 133.57 797.05 133.73C797.33 134.06 797.58 134.41 797.83 134.77C797.83 134.77 797.83 134.78 797.83 134.78C797.86 134.82 797.88 134.87 797.91 134.91C798.11 135.22 798.31 135.54 798.48 135.87C798.55 135.99 798.6 136.11 798.65 136.23C798.78 136.49 798.91 136.75 799.02 137.02C799.09 137.19 799.15 137.36 799.21 137.53C799.29 137.75 799.37 137.97 799.44 138.2C799.51 138.42 799.56 138.64 799.61 138.86C799.66 139.04 799.71 139.23 799.75 139.42C799.8 139.69 799.84 139.96 799.87 140.23C799.89 140.38 799.92 140.52 799.93 140.67C799.97 141.02 799.98 141.36 799.99 141.71C799.99 141.79 800 141.86 800 141.94C800 141.95 800 603.33 800 603.35C800 603.37 800 657.96 800 657.98C800 657.99 800 658.01 800 658.02ZM450.32 450.32L450.32 645.16L744.48 645.16L481.25 469.68L527.78 469.68L774.19 633.95L774.19 610.32L563.72 469.68L610.17 469.68L774.19 579.29L774.19 450.32L735.48 450.32C728.35 450.32 722.58 444.55 722.58 437.42C722.58 430.29 728.35 424.52 735.48 424.52L774.19 424.52L774.19 375.48L437.42 375.48C430.29 375.48 424.52 369.71 424.52 362.58L424.52 154.84L375.48 154.84L375.48 362.58C375.48 369.71 369.71 375.48 362.58 375.48L25.81 375.48L25.81 424.52L362.58 424.52C369.71 424.52 375.48 430.29 375.48 437.42L375.48 645.16L424.52 645.16L424.52 437.42C424.52 430.29 430.29 424.52 437.42 424.52L683.87 424.52C691 424.52 696.77 430.29 696.77 437.42C696.77 444.55 691 450.32 683.87 450.32L450.32 450.32ZM349.68 349.68L349.68 154.84L55.52 154.84L318.75 330.32L272.22 330.32L25.81 166.05L25.81 190.91L234.43 330.32L187.98 330.32L25.81 221.95L25.81 349.68L349.68 349.68ZM330.32 486.77L330.32 517.79L139.26 645.16L349.68 645.16L349.68 450.32L25.81 450.32L25.81 633.95L272.22 469.68L318.75 469.68L55.52 645.16L92.74 645.16L330.32 486.77L330.32 486.77ZM469.68 282.23L660.74 154.84L450.32 154.84L450.32 349.68L774.19 349.68L774.19 166.05L527.78 330.32L481.25 330.32L744.48 154.84L707.26 154.84L469.68 313.24L469.68 282.23Z" />
		<path id="Layer" class="shp1" d="M330.32 269.81L157.87 154.84L55.52 154.84L318.75 330.32L272.22 330.32L234.43 330.32L187.98 330.32L25.81 221.94L25.81 234.28L169.87 330.32L25.81 330.32L25.81 349.68L349.68 349.68L349.68 154.84L330.32 154.84L330.32 269.81Z" />
		<path id="Layer" class="shp1" d="M469.68 530.19L642.13 645.16L744.48 645.16L481.25 469.68L527.78 469.68L563.72 469.68L610.17 469.68L774.19 579.29L774.19 565.72L630.13 469.68L774.19 469.68L774.19 450.32L735.48 450.32C728.36 450.32 722.58 444.55 722.58 437.42L696.77 437.42C696.77 444.55 691 450.32 683.87 450.32L450.32 450.32L450.32 645.16L469.68 645.16L469.68 530.19L469.68 530.19Z" />
		<path id="Layer" class="shp4" d="M374.48 646.16L374.48 437.42C374.48 430.86 369.14 425.52 362.58 425.52L24.81 425.52L24.81 374.48L362.58 374.48C369.14 374.48 374.48 369.14 374.48 362.58L374.48 153.84L425.52 153.84L425.52 362.58C425.52 369.14 430.86 374.48 437.42 374.48L775.19 374.48L775.19 425.52L735.48 425.52C728.92 425.52 723.58 430.86 723.58 437.42L723.58 438.42L695.77 438.42L695.77 437.42C695.77 430.86 690.43 425.52 683.87 425.52L437.42 425.52C430.86 425.52 425.52 430.86 425.52 437.42L425.52 646.16L374.48 646.16L374.48 646.16Z" />
		<path id="Layer" class="shp2" d="M722.58 437.42C722.58 430.29 728.36 424.52 735.48 424.52L774.19 424.52L774.19 375.48L437.42 375.48C430.29 375.48 424.52 369.71 424.52 362.58L424.52 154.84L375.48 154.84L375.48 362.58C375.48 369.71 369.71 375.48 362.58 375.48L25.81 375.48L25.81 424.52L362.58 424.52C369.71 424.52 375.48 430.29 375.48 437.42L375.48 645.16L424.52 645.16L424.52 437.42C424.52 430.29 430.29 424.52 437.42 424.52L683.87 424.52C691 424.52 696.77 430.29 696.77 437.42L696.77 437.42L722.58 437.42L722.58 437.42Z" />
	</g>
	<g id="Folder 1">
		<path id="black_stripe" class="shp3" d="M23 147L776 147L776 647L23 647L23 147Z" />
		<path id="red_stripe" class="shp5" d="M24 313.67L777 313.67L777 647L24 647L24 313.67Z" />
		<path id="gold_stripe" class="shp6" d="M23 480.33L776 480.33L776 647L23 647L23 480.33Z" />
	</g>
</svg>