<?xml version="1.0" standalone="no"?>
<!DOCTYPE svg PUBLIC "-//W3C//DTD SVG 1.1//EN" "http://www.w3.org/Graphics/SVG/1.1/DTD/svg11.dtd" >
<svg xmlns="http://www.w3.org/2000/svg">
<metadata>Generated by IcoMoon</metadata>
<defs>
<font id="icomoon" horiz-adv-x="1024">
<font-face units-per-em="1024" ascent="960" descent="-64" />
<missing-glyph horiz-adv-x="1024" />
<glyph unicode="&#x20;" horiz-adv-x="512" d="" />
<glyph unicode="&#xe900;" glyph-name="Back" d="M864.001 447.997c0-16.201-12.041-29.589-27.661-31.706l-4.339-0.294h-640.002c-17.673 0-32 14.327-32 32 0 16.201 12.038 29.589 27.658 31.71l4.342 0.29h640.002c17.673 0 32-14.327 32-32zM472.713 213.629c12.523-12.467 12.565-32.73 0.098-45.252-11.337-11.388-29.111-12.459-41.66-3.187l-3.596 3.089-258.133 257.024c-11.419 11.371-12.458 29.21-3.116 41.758l3.114 3.593 258.133 257.066c12.524 12.471 32.782 12.429 45.254-0.093 11.337-11.384 12.335-29.164 3.012-41.672l-3.106-3.583-235.349-234.404 235.349-234.338z" />
<glyph unicode="&#xe901;" glyph-name="Alert" d="M113.778 448c0 219.12 179.103 398.222 398.222 398.222s398.222-179.103 398.222-398.222c0-219.119-179.103-398.222-398.222-398.222s-398.222 179.103-398.222 398.222zM512 760.889c-171.992 0-312.889-140.897-312.889-312.889s140.897-312.889 312.889-312.889c171.992 0 312.889 140.897 312.889 312.889s-140.897 312.889-312.889 312.889zM512 632.889c23.564 0 42.667-19.103 42.667-42.667v-177.778c0-23.563-19.103-42.667-42.667-42.667s-42.667 19.103-42.667 42.667v177.778c0 23.564 19.103 42.667 42.667 42.667zM469.139 305.778c0 23.563 19.103 42.667 42.667 42.667h0.32c23.564 0 42.667-19.103 42.667-42.667s-19.103-42.667-42.667-42.667h-0.32c-23.564 0-42.667 19.103-42.667 42.667z" />
<glyph unicode="&#xe902;" glyph-name="LeftArrow" d="M297.345 41.352c-2.98 2.974-5.344 6.502-6.958 10.389-1.613 3.891-2.444 8.055-2.444 12.267 0 4.207 0.83 8.375 2.444 12.262 1.613 3.891 3.978 7.42 6.958 10.394l361.408 361.344-361.408 361.344c-6.009 6.009-9.385 14.158-9.385 22.656s3.376 16.647 9.385 22.656c6.009 6.009 14.159 9.384 22.656 9.384s16.647-3.375 22.656-9.384l384-384c2.978-2.974 5.346-6.502 6.959-10.394 1.613-3.887 2.441-8.055 2.441-12.262 0-4.211-0.828-8.375-2.441-12.267-1.613-3.887-3.981-7.415-6.959-10.389l-384-384c-2.973-2.978-6.504-5.346-10.391-6.959s-8.055-2.441-12.265-2.441c-4.209 0-8.377 0.828-12.265 2.441s-7.419 3.981-10.391 6.959z" />
<glyph unicode="&#xe903;" glyph-name="Mic" d="M320 768c0 50.921 20.229 99.758 56.236 135.764s84.842 56.236 135.764 56.236c50.923 0 99.759-20.229 135.765-56.236s56.235-84.843 56.235-135.764v-320c0-50.923-20.228-99.759-56.235-135.765s-84.843-56.235-135.765-56.235c-50.923 0-99.758 20.228-135.764 56.235s-56.236 84.843-56.236 135.765v320zM224 544c8.487 0 16.626-3.372 22.627-9.373s9.373-14.141 9.373-22.627v-64c0-67.895 26.971-133.009 74.981-181.018 48.009-48.013 113.124-74.982 181.019-74.982s133.009 26.97 181.018 74.982c48.013 48.009 74.982 113.122 74.982 181.018v64c0 8.486 3.371 16.627 9.374 22.627 5.999 6.001 14.14 9.373 22.626 9.373s16.627-3.372 22.626-9.373c6.003-6 9.374-14.141 9.374-22.627v-64c0-79.33-29.466-155.831-82.679-214.665-53.218-58.833-126.387-95.804-205.321-103.735v-129.6h192c8.486 0 16.627-3.371 22.626-9.374 6.003-5.999 9.374-14.14 9.374-22.626s-3.371-16.627-9.374-22.626c-5.999-6.003-14.14-9.374-22.626-9.374h-448c-8.487 0-16.626 3.371-22.627 9.374-6.001 5.999-9.373 14.14-9.373 22.626s3.372 16.627 9.373 22.626c6.001 6.003 14.141 9.374 22.627 9.374h192v129.6c-78.932 7.932-152.104 44.902-205.32 103.735s-82.681 135.334-82.68 214.665v64c0 8.486 3.372 16.627 9.373 22.627s14.141 9.373 22.627 9.373z" />
<glyph unicode="&#xe904;" glyph-name="Calendar" d="M701.92 194.291c-17.664 0-32.169 14.336-32.169 32s14.121 32 31.785 32h0.384c17.664 0 32-14.336 32-32s-14.336-32-32-32zM512.595 194.291c-17.664 0-32.171 14.336-32.171 32s14.123 32 31.787 32h0.384c17.662 0 31.998-14.336 31.998-32s-14.336-32-31.998-32zM322.862 194.291c-17.664 0-32.214 14.336-32.214 32s14.166 32 31.83 32h0.384c17.664 0 32-14.336 32-32s-14.336-32-32-32zM701.92 360.118c-17.664 0-32.169 14.336-32.169 32s14.121 32 31.785 32h0.384c17.664 0 32-14.336 32-32s-14.336-32-32-32zM512.595 360.118c-17.664 0-32.171 14.336-32.171 32s14.123 32 31.787 32h0.384c17.662 0 31.998-14.336 31.998-32s-14.336-32-31.998-32zM322.862 360.118c-17.664 0-32.214 14.336-32.214 32s14.166 32 31.83 32h0.384c17.664 0 32-14.336 32-32s-14.336-32-32-32zM892.44 526.743h-760.492c-17.664 0-32 14.336-32 32s14.336 32 32 32h760.492c17.664 0 32-14.336 32-32s-14.336-32-32-32zM684.522 702.252c-17.664 0-32 14.336-32 32v140.416c0 17.664 14.336 32 32 32s32-14.336 32-32v-140.416c0-17.664-14.336-32-32-32zM339.849 702.252c-17.664 0-32 14.336-32 32v140.416c0 17.664 14.336 32 32 32s32-14.336 32-32v-140.416c0-17.664-14.336-32-32-32zM331.562 775.293c-110.635 0-171.563-59.008-171.563-166.144v-386.088c0-109.486 60.928-169.728 171.563-169.728h360.876c110.633 0 171.561 59.136 171.561 166.482v389.335c0.169 52.693-13.993 93.653-42.112 121.813-28.928 29.014-73.513 44.331-129.065 44.331h-361.26zM692.438-10.667h-360.876c-145.28 0-235.563 89.554-235.563 233.728v386.088c0 141.994 90.283 230.144 235.563 230.144h361.26c72.914 0 133.202-21.846 174.377-63.104 39.977-40.15 61.015-97.878 60.8-167.126v-389.249c0-142.162-90.281-230.482-235.561-230.482z" />
<glyph unicode="&#xe905;" glyph-name="Camera" d="M306.935 749.954c17.15 31.169 35.807 52.006 63.491 63.024 50.731 20.172 232.424 20.172 283.112-0.004 27.669-11.013 46.336-31.846 63.497-63.008l19.294-36.998c0.444-0.733 0.849-1.378 1.212-1.932l1.638-2.24c8.794-9.579 23.505-15.366 33.216-15.366 91.819 0 166.272-74.436 166.272-166.231v-247.253c0-117.086-94.967-212.053-212.053-212.053h-429.228c-117.115 0-212.053 94.955-212.053 212.053v247.253c0 91.795 74.452 166.231 166.272 166.231 9.676 0 24.409 5.795 33.213 15.366 0.176 0.192 0.406 0.477 0.683 0.855l2.194 3.366 19.24 36.939zM660.974 719.089c-10.662 19.364-20.301 30.122-31.104 34.421l-5.090 1.693c-43.908 12.411-196.646 11.847-230.697-1.693-10.796-4.297-20.423-15.049-31.076-34.409l-16.421-31.748-4.042-7.314c-3.374-5.612-6.748-10.349-10.602-14.548-21.609-23.488-53.577-36.062-80.339-36.062l-7.001-0.236c-53.212-3.598-95.271-47.901-95.271-101.995v-247.253c0-81.754 66.287-148.053 148.053-148.053h429.228c81.741 0 148.053 66.317 148.053 148.053v247.253c0 56.446-45.794 102.231-102.272 102.231l-7.428 0.311c-25.114 2.066-53.316 14.403-72.939 35.78-3.802 4.143-7.159 8.847-10.513 14.411-0.478 0.798-1.079 1.849-1.766 3.093l-4.954 9.29-13.82 26.776zM344.348 395.968c0 92.595 75.042 167.639 167.639 167.639 92.595 0 167.637-75.043 167.637-167.639s-75.042-167.637-167.637-167.637c-92.597 0-167.639 75.042-167.639 167.637zM615.624 395.968c0 57.25-46.391 103.637-103.637 103.637-57.25 0-103.639-46.387-103.639-103.637s46.389-103.637 103.639-103.637c57.246 0 103.637 46.387 103.637 103.637zM746.85 593.429c23.565 0 42.667-19.103 42.667-42.667 0-21.879-16.474-39.915-37.692-42.381l-4.975-0.286c-23.949 0-43.051 19.102-43.051 42.667 0 21.881 16.469 39.915 37.692 42.38l5.359 0.287z" />
<glyph unicode="&#xe907;" glyph-name="Chat" d="M288.164 133.233c23.028 0 44.745-8.734 67.733-17.984 140.826-65.114 307.379-35.494 415.889 72.973 143.168 143.249 143.168 376.266 0 519.434-69.325 69.321-161.515 107.476-259.657 107.476-98.187 0-190.417-38.194-259.698-107.515-108.548-108.468-138.086-275.021-73.569-414.499 9.29-22.989 18.263-45.38 18.263-68.646 0-23.223-7.98-46.609-15.008-67.255-5.797-16.994-14.571-42.641-8.933-48.277 5.519-5.717 31.325 3.294 48.358 9.131 20.447 6.989 43.633 15.006 66.621 15.164zM511.118 21.314c-60.668 0-121.728 12.821-178.861 39.266-16.834 6.75-32.596 13.099-43.912 13.099-13.022-0.077-30.531-6.114-47.445-11.947-34.7-11.913-77.897-26.761-109.858 5.082-31.842 31.881-17.152 74.957-5.32 109.619 5.836 17.071 11.831 34.701 11.831 48.038 0 10.957-5.28 24.934-13.38 45.065-74.363 160.597-39.981 354.148 86.155 480.205 80.518 80.557 187.675 124.945 301.74 124.945 114.069 0 221.265-44.348 301.781-124.905 166.434-166.435 166.434-437.207 0-603.641-81.587-81.63-191.445-124.826-302.733-124.826zM668.818 391.797c-21.914 0-39.859 17.745-39.859 39.701s17.587 39.701 39.505 39.701h0.354c21.918 0 39.706-17.745 39.706-39.701s-17.788-39.701-39.706-39.701zM509.659 391.797c-21.918 0-39.863 17.745-39.863 39.701s17.549 39.701 39.505 39.701h0.358c21.914 0 39.701-17.745 39.701-39.701s-17.788-39.701-39.701-39.701zM350.46 391.797c-21.916 0-39.862 17.745-39.862 39.701s17.588 39.701 39.505 39.701h0.357c21.916 0 39.703-17.745 39.703-39.701s-17.787-39.701-39.703-39.701z" />
<glyph unicode="&#xe90a;" glyph-name="Clock-In-Filled" d="M507.138 874.667h215.011c107.505 0 195.185-85.334 195.185-189.44v-474.454c0-104.532-87.68-189.44-196.067-189.44h-214.568c-107.505 0-195.624 84.908-195.624 189.016v204.8h273.17l-70.495-68.268c-13.221-12.8-13.221-33.708 0-46.508 6.608-6.4 15.419-9.384 24.232-9.384 8.371 0 17.181 2.984 23.79 9.384l128.655 124.16c6.608 5.976 10.134 14.508 10.134 23.468 0 8.532-3.525 17.068-10.134 23.040l-128.655 124.16c-13.217 12.8-34.805 12.8-48.022 0-13.221-12.8-13.221-33.708 0-46.508l70.495-67.84h-273.17v203.948c0 104.533 88.119 189.867 196.063 189.867zM106.667 448.005c0 17.92 15.157 32.852 33.344 32.852h171.052v-65.704h-171.052c-18.188 0-33.344 14.504-33.344 32.852z" />
<glyph unicode="&#xe90b;" glyph-name="Clock-In" d="M663.549 416.001h-513.748c-17.664 0-32 14.336-32 32s14.336 32 32 32h513.748c17.664 0 32-14.336 32-32s-14.336-32-32-32zM538.628 291.629c-8.192 0-16.424 3.112-22.656 9.428-12.5 12.544-12.416 32.768 0.088 45.228l102.144 101.716-102.144 101.76c-12.504 12.46-12.588 32.684-0.088 45.226 12.504 12.544 32.728 12.544 45.228 0.085l124.972-124.416c6.056-5.972 9.428-14.164 9.428-22.656s-3.372-16.684-9.428-22.656l-124.972-124.372c-6.228-6.232-14.42-9.344-22.572-9.344zM716.932 21.333h-208.428c-104.064 0-188.757 84.696-188.757 188.8v40.192c0 17.664 14.336 32 32 32 17.665 0 32.001-14.336 32.001-32v-40.192c0-68.776 55.976-124.8 124.756-124.8h208.428c69.076 0 125.268 56.152 125.268 125.272v475.263c0 68.778-56.020 124.8-124.8 124.8h-208.428c-69.032 0-125.224-56.15-125.224-125.184v-39.808c0-17.664-14.336-32-32.001-32s-32 14.336-32 32v39.808c0 104.32 84.905 189.184 189.225 189.184h208.428c104.064 0 188.8-84.694 188.8-188.8v-475.263c0-104.364-84.948-189.272-189.268-189.272z" />
<glyph unicode="&#xe90c;" glyph-name="Clock-Out-Filled" d="M405.555 480.852c-18.666 0-33.426-14.504-33.426-32.852 0-17.92 14.76-32.852 33.426-32.852h260.465v-203.948c0-104.532-86.385-189.868-193.178-189.868h-211.41c-106.357 0-192.744 84.908-192.744 189.44v474.028c0 104.96 86.822 189.867 193.178 189.867h211.847c105.922 0 192.307-84.907 192.307-189.44v-204.374h-260.465zM820.912 595.618l124.584-124.161c6.4-6.4 9.816-14.504 9.816-23.464 0-8.536-3.416-17.068-9.816-23.040l-124.584-124.16c-6.4-6.4-14.936-9.816-23.040-9.816-8.536 0-17.068 3.416-23.468 9.816-12.8 12.8-12.8 33.704 0 46.504l68.268 67.84h-176.64v65.708h176.64l-68.268 67.84c-12.8 12.8-12.8 33.708 0 46.506 12.8 13.226 33.708 13.226 46.508 0.426z" />
<glyph unicode="&#xe90d;" glyph-name="Delete" d="M512.751 21.341c-57.813 0-114.176 0.64-169.941 1.792-71.339 1.408-120.704 47.659-128.768 120.704-13.44 121.173-36.437 406.784-36.651 409.642-1.451 17.621 11.691 33.067 29.312 34.475 17.365 0.469 33.067-11.733 34.475-29.312 0.213-2.901 23.168-287.53 36.48-407.765 4.565-41.515 26.965-62.933 66.475-63.744 106.667-2.261 215.509-2.389 332.843-0.256 41.984 0.811 64.683 21.803 69.376 64.299 13.227 119.211 36.267 404.565 36.523 407.466 1.408 17.579 16.981 29.867 34.432 29.312 17.621-1.451 30.763-16.853 29.355-34.475-0.256-2.901-23.381-289.237-36.693-409.344-8.277-74.539-57.515-119.893-131.84-121.259-56.875-0.981-111.744-1.536-165.376-1.536zM873.77 661.795h-723.541c-17.664 0-32 14.336-32 32s14.336 32 32 32h723.541c17.664 0 32-14.336 32-32s-14.336-32-32-32zM734.353 661.795c-48.555 0-90.709 34.603-100.267 82.219l-10.368 51.883c-2.176 7.893-11.179 14.763-21.419 14.763h-180.608c-10.24 0-19.243-6.869-21.846-16.725l-9.941-49.92c-9.515-47.616-51.712-82.219-100.266-82.219-17.664 0-32 14.336-32 32s14.336 32 32 32c18.176 0 33.963 12.971 37.547 30.805l10.368 51.883c10.539 39.765 44.971 66.176 84.139 66.176h180.608c39.168 0 73.6-26.411 83.712-64.256l10.837-53.803c3.541-17.835 19.328-30.805 37.504-30.805 17.664 0 32-14.336 32-32s-14.336-32-32-32z" />
<glyph unicode="&#xe90e;" glyph-name="Deliverdmark" d="M831.176 755.2l39.224-37.9-424.471-576.5-292.329 284.774 65.274 63.067 227.056-137.804 385.246 404.362z" />
<glyph unicode="&#xe90f;" glyph-name="Filter" d="M133.523 239.237c0 21.207 17.192 38.4 38.4 38.4h268.831c21.208 0 38.4-17.193 38.4-38.4s-17.192-38.4-38.4-38.4h-268.831c-21.208 0-38.4 17.193-38.4 38.4zM613.277 240.906c0 76.759 62.612 138.506 139.264 138.506 76.646 0 139.192-61.773 139.192-138.506 0-76.728-62.546-138.506-139.192-138.506-76.652 0-139.264 61.752-139.264 138.506zM752.541 302.612c-34.775 0-62.464-27.899-62.464-61.706s27.689-61.706 62.464-61.706c34.714 0 62.392 27.873 62.392 61.706s-27.679 61.706-62.392 61.706zM522.258 652.784c0 21.208 17.193 38.4 38.4 38.4h268.831c21.212 0 38.4-17.192 38.4-38.4s-17.188-38.4-38.4-38.4h-268.831c-21.207 0-38.4 17.192-38.4 38.4zM132.267 655.093c0 76.748 62.601 138.507 139.228 138.507s139.228-61.758 139.228-138.507c0-76.748-62.601-138.507-139.228-138.507s-139.228 61.758-139.228 138.507zM271.494 716.8c-34.732 0-62.428-27.892-62.428-61.707s27.696-61.707 62.428-61.707c34.732 0 62.428 27.892 62.428 61.707s-27.696 61.707-62.428 61.707z" />
<glyph unicode="&#xe910;" glyph-name="Refresh" d="M192.531 206.978c27.97-41.956 62.933-69.928 104.888-97.9 237.744-139.844 545.413-6.992 594.36 265.717 6.992 20.978 6.992 41.956 6.992 62.933 0 27.97 20.981 41.955 41.956 34.963 20.981 0 34.964-20.978 34.964-41.955-6.992-97.896-34.964-188.799-90.903-265.713-76.919-104.892-181.806-174.814-314.664-188.797-167.817-20.981-307.667 27.967-426.539 153.833-6.992 6.992-13.985 13.983-20.977 20.975-6.993-34.958-13.985-69.922-20.978-104.886-6.992-13.983-13.985-27.967-27.97-34.964-13.985 0-27.97 0-34.962 13.989-6.992 20.975-6.992 34.958-6.992 48.947 6.992 48.947 20.978 90.903 27.97 139.85 0 13.983 6.993 34.958 6.993 48.947 13.985 34.958 27.97 48.947 62.932 41.956 62.932-13.989 132.857-27.972 195.789-41.956 27.97-6.992 41.955-27.972 34.963-48.947-6.993-20.981-20.978-34.964-48.947-34.964-27.97 6.992-62.933 13.983-90.903 20.975-6.992 0-13.985 6.997-27.97 6.997zM821.856 689.446c-20.981 27.97-48.947 55.94-76.919 76.918-230.752 174.812-559.398 55.939-629.323-230.752 0-20.978 0-41.955-6.992-62.933 0-27.969-20.978-41.954-41.955-41.954-20.978 6.992-34.963 20.977-34.963 48.947 13.985 223.759 188.797 412.557 405.564 440.527 174.81 20.977 321.652-34.962 440.527-174.812l6.992-6.992c0 0 0 0 6.992 0 6.992 27.969 13.989 62.932 20.981 90.902s34.958 41.955 55.939 34.962c20.975-6.992 27.967-27.97 20.975-55.94-13.983-48.947-20.975-104.887-34.958-153.834 0-13.985-6.997-27.97-6.997-41.955-6.992-20.977-27.967-34.962-48.947-27.97-69.922 13.985-132.853 27.97-202.78 48.947-27.972 6.993-34.964 27.97-34.964 48.948 6.992 20.977 27.972 34.962 55.945 27.97 34.958-6.993 69.922-13.985 104.886-20.978z" />
<glyph unicode="&#xe911;" glyph-name="Notification" horiz-adv-x="884" d="M439.651-52.363h-0.093c-52.177 0.047-101.562 23.040-139.031 64.791-12.893 14.289-11.729 36.399 2.607 49.245 14.336 12.94 36.399 11.776 49.292-2.607 24.111-26.857 55.063-41.612 87.18-41.612h0.047c32.256 0 63.347 14.755 87.504 41.658 12.94 14.289 35.002 15.453 49.292 2.56 14.336-12.893 15.5-35.002 2.607-49.292-37.609-41.751-87.087-64.745-139.402-64.745zM441.931 878.546c-162.676 0-276.061-127.441-276.061-241.804 0-96.768-26.857-141.498-50.595-180.969-19.037-31.697-34.071-56.739-34.071-111.151 7.773-87.785 65.722-133.911 360.727-133.911 293.376 0 353.14 48.175 360.866 136.937-0.14 51.386-15.174 76.428-34.211 108.125-23.738 39.471-50.595 84.201-50.595 180.969 0 114.362-113.385 241.804-276.061 241.804zM441.931 140.893c-217.647 0-414.347 15.36-430.406 200.751-0.14 76.707 23.273 115.712 43.939 150.063 20.899 34.816 40.587 67.631 40.587 145.036 0 150.481 138.985 311.622 345.879 311.622s345.879-161.14 345.879-311.622c0-77.405 19.689-110.22 40.588-145.036 20.666-34.351 44.079-73.356 44.079-147.084-16.244-188.369-212.899-203.729-430.545-203.729z" />
<glyph unicode="&#xe912;" glyph-name="warning" horiz-adv-x="1132" d="M566.324 857.223c-25.656 0-48.507-13.258-61.334-35.517l-387.934-677.187c-12.611-22.097-12.504-48.451 0.269-70.494s35.624-35.247 61.117-35.247h775.17c25.438 0 48.29 13.204 61.063 35.247 12.827 22.043 12.935 48.397 0.216 70.494l-387.234 677.187c-12.773 22.259-35.624 35.517-61.332 35.517zM953.612-42.065h-775.17c-54.649 0-103.64 28.241-131.072 75.56-27.432 47.266-27.594 103.801-0.485 151.175l388.042 677.241c27.271 47.697 76.369 76.153 131.397 76.153h0.054c54.973 0 104.179-28.51 131.449-76.261l387.288-677.133c27.109-47.373 26.947-103.909-0.485-151.175-27.432-47.32-76.423-75.56-131.018-75.56zM565.958 156.645c-29.805 0-54.165 24.091-54.165 53.895s23.875 53.895 53.625 53.895h0.54c29.804 0 53.895-24.091 53.895-53.895s-24.091-53.895-53.895-53.895zM565.845 336.384c-22.312 0-40.421 18.109-40.421 40.421v167.076c0 22.312 18.109 40.421 40.421 40.421s40.421-18.109 40.421-40.421v-167.076c0-22.312-18.109-40.421-40.421-40.421z" />
<glyph unicode="&#xe913;" glyph-name="Close" d="M379.143 449.702c-7.604 5.042-14.903 10.54-21.86 16.462-107.992 108.933-215.875 217.976-323.649 327.129-16.675 16.408-26.811 38.433-28.484 61.894s5.235 46.726 19.41 65.38c13.606 18.605 33.331 31.696 55.629 36.92s45.71 2.24 66.027-8.417c10.956-6.347 20.964-14.234 29.73-23.422 106.535-106.649 212.889-213.446 319.059-320.39 5.034-5.993 9.636-12.343 13.772-19.002 8.854 8.286 14.21 13.146 19.238 18.228 106.462 107.607 212.997 215.214 319.605 322.821 10.718 11.652 24.1 20.471 38.971 25.685s30.78 6.662 46.334 4.22c15.555-2.442 30.28-8.701 42.886-18.228 12.605-9.528 22.709-22.034 29.426-36.423 9.142-18.537 12.072-39.577 8.346-59.944s-13.907-38.958-29.004-52.964c-106.025-107.238-212.050-214.368-318.075-321.385-6.048-5.342-12.398-10.321-19.019-14.915 7.761-8.286 12.46-13.588 17.379-18.561 108.721-109.153 217.441-218.308 326.162-327.461 12.6-11.163 22.116-25.441 27.616-41.438s6.791-33.162 3.754-49.817c-3.578-16.867-11.356-32.532-22.601-45.51s-25.582-22.837-41.651-28.646c-16.071-5.809-33.341-7.372-50.177-4.549-16.837 2.827-32.681 9.953-46.030 20.701-7.294 5.865-14.16 12.253-20.548 19.114-104.713 105.692-209.282 211.457-313.704 317.297-4.702 5.767-8.838 11.983-12.349 18.56h-8.418c-3.483-6.499-7.583-12.642-12.242-18.34-106.79-108.27-214.017-216.097-320.589-324.588-13.489-14.173-30.584-24.312-49.405-29.302-18.821-4.986-38.64-4.638-57.275 1.018-14.97 4.231-28.638 12.217-39.738 23.217s-19.27 24.656-23.752 39.699c-4.482 15.045-5.129 30.989-1.883 46.354s10.28 29.652 20.45 41.534c5.194 6.143 10.703 12.006 16.505 17.566 106.025 107.165 212.050 214.292 318.075 321.384 4.263 4.861 10.383 9.059 22.078 18.119z" />
<glyph unicode="&#xe914;" glyph-name="Right-Arrow" horiz-adv-x="1161" d="M643.367 822.991c-20.038 19.952-20.108 52.37-0.156 72.408 18.138 18.216 46.579 19.93 66.654 5.101l5.755-4.945 413.013-411.238c18.268-18.192 19.934-46.735 4.983-66.811l-4.983-5.749-413.013-411.309c-20.034-19.954-52.453-19.886-72.406 0.15-18.14 18.214-19.733 46.667-4.82 66.676l4.969 5.734 376.562 375.048-376.558 374.936zM17.293 448.011c0 25.921 19.262 47.342 44.252 50.733l6.948 0.467h1024c28.276 0 51.2-22.923 51.2-51.2 0-25.92-19.265-47.342-44.25-50.732l-6.95-0.468h-1024c-28.277 0-51.2 22.923-51.2 51.2z" />
<glyph unicode="&#xe915;" glyph-name="Home-Filled" d="M512 45.978c-85.734 0-171.466 0-257.199 0-84.084 0-145.087 61.202-145.087 145.562 0 110.826 0 219.995 0 330.821 0 52.93 21.433 94.283 64.3 124.057 87.382 59.548 174.764 120.75 263.793 180.297 47.813 31.428 100.571 31.428 148.385 0 92.328-61.202 181.358-122.403 272.037-185.259 37.921-26.466 56.057-64.508 56.057-110.826 0-114.132 0-228.264 0-342.396 0-76.091-62.651-138.946-138.492-138.946-89.029-4.963-176.413-3.31-263.793-3.31zM512 186.576c31.327 0 64.3 0 95.627 0 16.486 0 24.73 8.272 24.73 19.851 0 13.232-9.893 19.847-24.73 19.847-64.3 0-126.954 0-191.254 0-16.486 0-24.73-8.269-24.73-19.847 0-13.235 9.893-19.851 24.73-19.851 31.327 0 64.3 0 95.627 0z" />
<glyph unicode="&#xe916;" glyph-name="Home" d="M612.089 846.215c-62.179 48.003-140.156 45.942-202.021-1.821-31.056-24.159-62.099-48.542-93.183-72.957-55.731-43.775-111.677-87.714-168.436-130.949l-0.191-0.155c-41.89-33.868-69.49-76.149-69.49-132.249v-336.87c0-36.14 9.655-69.186 33.325-96.519 33.013-40.251 75.99-59.469 128.112-59.469h272.717c22.502 0 45.041-0.113 67.577-0.227v0h0.004c67.595-0.344 135.161-0.684 201.626 2.048 17.046 0.011 36.348 1.883 54.005 7.687 68.136 21.189 109.096 79.188 109.096 150.122v333.228c0 51.884-21.552 94.335-62.153 126.814l-0.055 0.044c-45.166 35.525-90.339 70.598-135.479 105.646-45.147 35.055-90.273 70.092-135.395 105.581l-0.059 0.047zM451.924 798.287c37.577 30.381 84.809 31.998 123.977 1.707 46.025-35.475 91.63-71.437 137.242-107.405 45.579-35.941 91.198-71.916 137.285-107.44 25.428-20.122 37.274-46.713 37.274-78.888v-333.228c0-47.060-28.654-83.767-74.693-95.565l-0.516-0.132-0.497-0.194c-7.435-2.94-16.786-3.050-26.361-3.050h-272.713c-46.117 0-92.226-0.453-137.827-0.911l-1.346-0.011c-45.157-0.453-89.806-0.9-133.545-0.9-40.82 0-71.207 19.877-90.119 55.504-6.818 13.499-10.104 26.737-10.104 39.793v344.155c0 29.594 14.885 54.612 39.096 73.41l0.042 0.033c45.123 35.491 90.722 70.993 136.328 106.501l0.006 0.004 0.364 0.283c45.479 35.409 90.978 70.833 136.019 106.259l0.088 0.072zM401.54 219.772l223.601-0.165c13.188-2.604 23.431-15.195 23.431-28.361 0-12.427-7.764-25.79-23.698-28.412l-0.684-0.113h-0.695c-0.629 0-1.452-0.157-3.493-0.662l-0.26-0.066c-1.679-0.417-4.403-1.093-7.307-1.093h-199.424c-3.273-0.004-8.24-0.011-13.367 2.22-12.665 3.061-22.352 15.323-22.352 28.127 0 13.166 10.244 25.757 23.431 28.361l0.816 0.165z" />
<glyph unicode="&#xe917;" glyph-name="Image-2" d="M290.454 882.023c-129.075 0-212.531-88.525-212.531-225.485v-417.075c0-137.011 83.456-225.485 212.531-225.485h442.674c129.28 0 212.787 88.474 212.787 225.485v417.075c0.102 69.786-21.197 128.051-61.542 168.448-37.274 37.325-89.446 57.037-150.989 57.037h-442.93zM733.128-62.822h-442.674c-173.056 0-289.331 121.498-289.331 302.285v417.075c0 180.787 116.275 302.285 289.331 302.285h442.93c82.33 0 153.344-27.494 205.312-79.565 54.323-54.374 84.122-133.478 84.019-222.771v-417.024c0-180.787-116.378-302.285-289.587-302.285zM352.149 667.517c-30.925 0-56.064-25.139-56.064-56.115 0-30.925 25.139-56.064 56.115-56.064 30.925 0 56.115 25.139 56.115 56.013-0.051 30.976-25.242 56.115-56.166 56.166zM352.2 478.537c-73.318 0-132.915 59.597-132.915 132.864 0 73.318 59.597 132.915 132.915 132.915 73.267-0.051 132.864-59.648 132.915-132.864v-0.051c0-73.267-59.597-132.864-132.915-132.864zM90.653 31.524c-6.349 0-12.8 1.587-18.739 4.915-18.534 10.394-25.037 33.792-14.694 52.275 3.072 5.53 76.544 135.424 157.389 201.984 64.102 52.736 133.12 23.757 188.723 0.358 32.717-13.773 63.642-26.778 93.338-26.778 27.24 0 61.391 48.128 91.599 90.573 41.933 59.187 89.549 126.158 159.283 126.158 111.104 0 207.002-99.124 258.56-152.372l5.939-6.144c14.746-15.206 14.387-39.526-0.819-54.323-15.104-14.797-39.424-14.438-54.272 0.819l-6.042 6.246c-43.622 45.107-124.826 128.973-203.366 128.973-30.106 0-65.434-49.818-96.717-93.798-42.906-60.416-87.296-122.931-154.165-122.931-45.21 0-86.63 17.408-123.136 32.819-58.061 24.474-84.378 32.307-110.131 11.11-69.837-57.549-138.547-179.098-139.213-180.275-7.014-12.544-20.070-19.61-33.536-19.61z" />
<glyph unicode="&#xe918;" glyph-name="info-circle" horiz-adv-x="983" d="M931.84 448c0-242.246-198.074-440.32-440.32-440.32s-440.32 198.074-440.32 440.32c0 242.246 198.074 440.32 440.32 440.32s440.32-198.074 440.32-440.32zM491.52 69.12c208.314 0 378.88 170.566 378.88 378.88s-170.566 378.88-378.88 378.88c-208.314 0-378.88-170.566-378.88-378.88s170.566-378.88 378.88-378.88zM491.52 253.44c-16.966 0-30.72 13.754-30.72 30.72v204.8c0 16.966 13.754 30.72 30.72 30.72s30.72-13.754 30.72-30.72v-204.8c0-16.966-13.754-30.72-30.72-30.72zM532.701 611.84c0-22.621-18.338-40.96-40.96-40.96h-0.369c-22.622 0-40.96 18.339-40.96 40.96s18.338 40.96 40.96 40.96h0.369c22.622 0 40.96-18.339 40.96-40.96z" />
<glyph unicode="&#xe919;" glyph-name="Mask-Group" d="M512.026 861.54c-228.041 0-413.566-185.475-413.566-413.515s185.525-413.563 413.566-413.563c227.988 0 413.513 185.525 413.513 413.563 0 228.041-185.525 413.515-413.513 413.515zM512.026-40.833c-269.553 0-488.86 219.305-488.86 488.858s219.307 488.809 488.86 488.809c269.551 0 488.807-219.256 488.807-488.809s-219.256-488.858-488.807-488.858z" />
<glyph unicode="&#xe91b;" glyph-name="Paper" horiz-adv-x="922" d="M258.582 879.172c-84.838 0-155.29-68.71-157.286-153.446v-547.584c-1.894-87.706 67.226-159.949 154.061-161.894h412.874c85.453 3.533 153.139 74.547 152.525 161.587v454.144l-237.312 247.194h-324.861zM259.196-60.553h-5.581c-129.126 2.918-231.936 110.336-229.12 239.514v547.686c2.97 127.027 107.879 229.325 233.984 229.325h341.348c10.445 0 20.429-4.25 27.699-11.776l259.328-270.183c6.861-7.117 10.701-16.691 10.701-26.573v-469.299c0.922-128.461-99.123-233.421-227.789-238.643l-410.57-0.051zM576.807 234.216h-276.482c-21.197 0-38.4 17.203-38.4 38.4s17.203 38.4 38.4 38.4h276.482c21.197 0 38.4-17.203 38.4-38.4s-17.203-38.4-38.4-38.4zM472.103 426.323h-171.827c-21.197 0-38.4 17.203-38.4 38.399s17.203 38.4 38.4 38.4h171.827c21.197 0 38.4-17.203 38.4-38.4s-17.203-38.399-38.4-38.399zM858.899 598.973h-141.056c-93.696 0.256-169.882 76.646-169.882 170.24v148.941c0 21.197 17.203 38.4 38.4 38.4s38.4-17.203 38.4-38.4v-148.941c0-51.405 41.83-93.286 93.184-93.44h140.954c21.197 0 38.4-17.203 38.4-38.4s-17.203-38.4-38.4-38.4z" />
<glyph unicode="&#xe91c;" glyph-name="Attech" d="M357.861 747.58c131.476 131.476 345.231 131.476 476.707 0s131.476-345.232 0-476.708l-165.975-165.97c-73.452-73.452-192.056-73.452-265.506 0-73.449 73.446-73.449 192.056 0 265.503l105.386 105.389c14.998 14.996 39.308 14.996 54.304 0s14.996-39.31 0-54.306l-105.385-105.385c-43.457-43.459-43.457-113.439 0-156.897 43.457-43.453 113.439-43.453 156.892 0l165.975 165.975c101.484 101.484 101.484 266.611 0 368.095s-266.61 101.484-368.094 0l-180.907-180.907c-84.812-84.813-84.895-222.674 0.058-307.994 14.964-15.027 14.913-39.342-0.116-54.303-15.028-14.966-39.342-14.915-54.306 0.113-114.727 115.22-114.81 301.624 0.058 416.49l180.907 180.907z" />
<glyph unicode="&#xe91d;" glyph-name="Send" d="M275.467 727.965c-30.161 14.303-64.349-10.061-60.657-43.261l21.554-194.028h260.477c23.565 0 42.667-19.102 42.667-42.667s-19.102-42.667-42.667-42.667h-260.476l-21.555-194.065c-3.687-33.161 30.469-57.557 60.679-43.255l509.603 241.446c32.521 15.398 32.529 61.679 0.009 77.077l-509.634 241.419zM155.246 448.009l-25.247 227.264c0 0.001 0-0.001 0 0-11.067 99.57 91.436 172.742 182.016 129.802l509.601-241.404c97.609-46.214 97.613-185.098 0.013-231.319-0.004 0 0.004 0.004 0 0l-509.611-241.451c-90.536-42.867-193.091 30.182-182.019 129.796 0 0 0 0 0 0l25.248 227.311z" />
<glyph unicode="&#xe91e;" glyph-name="Eye" horiz-adv-x="1317" d="M658.459 594.986c-81.066 0-146.956-65.951-146.956-147.017 0-81.006 65.89-146.895 146.956-146.895s147.018 65.889 147.018 146.895c0 81.066-65.953 147.017-147.018 147.017zM658.459 209.646c-131.474 0-238.385 106.909-238.385 238.323 0 131.474 106.911 238.446 238.385 238.446s238.446-106.971 238.446-238.446c0-131.414-106.971-238.323-238.446-238.323zM144.647 448.009c113.371-250.454 304.335-399.358 513.829-399.424 209.494 0.066 400.456 148.97 513.827 399.424-113.371 250.392-304.333 399.299-513.827 399.36-209.433-0.061-400.457-148.968-513.829-399.36zM658.597-42.843h-0.304c-252.099 0.183-478.476 176.889-605.623 472.81-4.937 11.52-4.937 24.564 0 36.084 127.147 295.863 353.584 472.564 605.623 472.747 0.121 0.061 0.121 0.061 0.183 0 0.121 0.061 0.121 0.061 0.183 0 252.1-0.183 478.477-176.884 605.621-472.747 5.003-11.52 5.003-24.564 0-36.084-127.086-295.921-353.521-472.627-605.621-472.81h-0.061z" />
<glyph unicode="&#xe91f;" glyph-name="Side-Menu" d="M463.957 717.039c0 26.533 21.508 48.043 48.043 48.043h437.188c26.53 0 48.043-21.51 48.043-48.043s-21.513-48.042-48.043-48.042h-437.188c-26.534 0-48.043 21.509-48.043 48.042zM26.769 448.004c0 26.53 21.509 48.043 48.042 48.043h807.112c26.534 0 48.043-21.513 48.043-48.043 0-26.534-21.508-48.043-48.043-48.043h-807.112c-26.533 0-48.042 21.508-48.042 48.043zM26.769 178.961c0 26.534 21.509 48.043 48.042 48.043h403.558c26.534 0 48.043-21.508 48.043-48.043s-21.508-48.043-48.043-48.043h-403.558c-26.533 0-48.042 21.508-48.042 48.043z" />
<glyph unicode="&#xe920;" glyph-name="Plus" d="M931.353 378.106h-349.461v-349.457c0-18.539-7.364-36.314-20.471-49.425-13.107-13.107-30.882-20.467-49.421-20.467-18.534 0-36.314 7.36-49.421 20.467-13.107 13.111-20.471 30.886-20.471 49.425v349.457h-349.46c-18.537 0-36.314 7.364-49.421 20.471s-20.471 30.886-20.471 49.421c0 18.539 7.364 36.314 20.471 49.421s30.885 20.471 49.421 20.471h349.46v349.461c0 18.537 7.364 36.314 20.471 49.421s30.886 20.471 49.421 20.471c18.539 0 36.314-7.364 49.421-20.471s20.471-30.885 20.471-49.421v-349.461h349.461c18.534 0 36.314-7.364 49.421-20.471s20.471-30.882 20.471-49.421c0-18.534-7.364-36.314-20.471-49.421s-30.886-20.471-49.421-20.471z" />
<glyph unicode="&#xe921;" glyph-name="Voice" horiz-adv-x="819" d="M409.59 836.269c-74.335 0-134.915-60.605-134.915-135.72v-199.989c0-75.103 60.568-135.677 134.915-135.677 74.386 0 134.917 60.57 134.917 135.677v199.989c0 75.121-60.543 135.72-134.917 135.72zM197.875 700.549c0 117.194 94.63 212.52 211.715 212.52 117.135 0 211.717-95.333 211.717-212.52v-199.989c0-117.199-94.592-212.477-211.717-212.477-117.072 0-211.715 95.268-211.715 212.477v199.989zM447.988 119.757c191.854 19.343 341.342 181.99 341.342 379.418 0 21.208-17.193 38.4-38.4 38.4s-38.4-17.192-38.4-38.4c0-168.351-135.777-304.543-302.957-304.543-167.133 0-302.911 136.187-302.911 304.543 0 21.208-17.192 38.4-38.4 38.4s-38.4-17.192-38.4-38.4c0-197.433 149.494-360.085 341.325-379.418v-98.417c0-21.212 17.192-38.4 38.4-38.4s38.4 17.188 38.4 38.4v98.417z" />
<glyph unicode="&#xe922;" glyph-name="Down-Arrow" horiz-adv-x="964" d="M130.831 634.944c12.417 12.351 31.848 13.473 45.54 3.368l3.923-3.368 301.705-300.077 301.707 300.077c12.414 12.351 31.846 13.473 45.538 3.368l3.921-3.368c12.421-12.351 13.547-31.677 3.391-45.296l-3.391-3.901-326.434-324.691c-12.417-12.348-31.848-13.475-45.54-3.367l-3.923 3.367-326.436 324.691c-13.659 13.585-13.659 35.612 0 49.198z" />
<glyph unicode="&#xe923;" glyph-name="notification-filled" d="M822.772 596.442c0-58.192 15.38-92.492 49.227-132.022 25.651-29.117 33.847-66.497 33.847-107.051 0-40.507-13.308-78.962-39.971-110.182-34.907-37.423-84.133-61.318-134.376-65.473-72.806-6.207-145.656-11.433-219.475-11.433-73.866 0-146.671 3.127-219.477 11.433-50.287 4.155-99.515 28.050-134.375 65.473-26.663 31.22-40.018 69.675-40.018 110.182 0 40.554 8.243 77.934 33.847 107.051 34.906 39.53 49.274 73.83 49.274 132.022v19.74c0 77.933 19.434 128.893 59.451 178.78 59.497 72.753 154.869 116.387 249.226 116.387h4.143c96.382 0 194.84-45.733 253.322-121.613 37.947-48.86 55.355-97.673 55.355-173.553v-19.74zM376.402 74.5c0 23.335 21.414 34.020 41.217 38.593 23.162 4.903 164.305 4.903 187.471 0 19.803-4.573 41.216-15.258 41.216-38.593-1.154-22.213-14.186-41.905-32.193-54.41-23.347-18.204-50.747-29.728-79.388-33.883-15.844-2.052-31.409-2.099-46.698 0-28.688 4.155-56.088 15.679-79.388 33.926-18.054 12.461-31.085 32.154-32.237 54.367z" />
</font>
</defs>
</svg>
